<svg xmlns="http://www.w3.org/2000/svg" viewBox="0 0 128 128">
  <defs>
    <linearGradient id="g" x1="0" y1="0" x2="1" y2="1">
      <stop offset="0%" stop-color="#38bdf8"/>
      <stop offset="100%" stop-color="#0ea5e9"/>
    </linearGradient>
  </defs>
  <rect width="128" height="128" rx="20" fill="#0f1115"/>
  <path d="M40 60a24 24 0 1148 0v12h4a8 8 0 018 8v20a8 8 0 01-8 8H36a8 8 0 01-8-8V80a8 8 0 018-8h4V60zM64 40a20 20 0 00-20 20v12h40V60a20 20 0 00-20-20z" fill="url(#g)"/>
  <path d="M54 86l8 8 20-20" stroke="#22c55e" stroke-width="8" fill="none" stroke-linecap="round" stroke-linejoin="round"/>
</svg>

